<svg xmlns="http://www.w3.org/2000/svg" version="1.1" xmlns:xlink="http://www.w3.org/1999/xlink" xmlns:svgjs="http://svgjs.com/svgjs" width="1440" height="560" preserveAspectRatio="none" viewBox="0 0 1440 560"><g mask="url(&quot;#SvgjsMask1648&quot;)" fill="none"><rect width="1440" height="560" x="0" y="0" fill="rgba(1, 10, 20, 1)"></rect><g transform="translate(0, 112)" stroke-linecap="round" stroke="url(#SvgjsRadialGradient1649)"><path d="M11.5 200.325 L11.5 239.325" stroke-width="9.75"></path><path d="M11.5 253.95 L11.5 359.675" stroke-width="9.75"></path><path d="M24.5 16.445 L24.5 250.445" stroke-width="9.75"></path><path d="M24.5 265.07 L24.5 304.07" stroke-width="9.75"></path><path d="M24.5 318.695 L24.5 543.555" stroke-width="9.75"></path><path d="M37.5 86.215 L37.5 164.215" stroke-width="9.75"></path><path d="M37.5 178.84 L37.5 473.785" stroke-width="9.75"></path><path d="M50.5 237.055 L50.5 256.555" stroke-width="9.75"></path><path d="M50.5 271.18 L50.5 280.93" stroke-width="9.75"></path><path d="M50.5 295.555 L50.5 322.945" stroke-width="9.75"></path><path d="M63.5 228.125 L63.5 247.625" stroke-width="9.75"></path><path d="M63.5 262.25 L63.5 331.875" stroke-width="9.75"></path><path d="M76.5 244.225 L76.5 273.475" stroke-width="9.75"></path><path d="M76.5 288.1 L76.5 315.765" stroke-width="9.75"></path><path d="M89.5 158.005 L89.5 343.255" stroke-width="9.75"></path><path d="M89.5 357.88 L89.5 402.005" stroke-width="9.75"></path><path d="M102.5 34.715 L102.5 132.215" stroke-width="9.75"></path><path d="M102.5 146.84 L102.5 283.34000000000003" stroke-width="9.75"></path><path d="M102.5 297.96500000000003 L102.5 525.275" stroke-width="9.75"></path><path d="M115.5 122.805 L115.5 161.805" stroke-width="9.75"></path><path d="M115.5 176.43 L115.5 437.195" stroke-width="9.75"></path><path d="M128.5 150.365 L128.5 409.635" stroke-width="9.75"></path><path d="M141.5 56.375 L141.5 105.125" stroke-width="9.75"></path><path d="M141.5 119.75 L141.5 503.625" stroke-width="9.75"></path><path d="M154.5 198.275 L154.5 286.025" stroke-width="9.75"></path><path d="M154.5 300.65 L154.5 361.725" stroke-width="9.75"></path><path d="M167.5 88.255 L167.5 471.745" stroke-width="9.75"></path><path d="M180.5 225.395 L180.5 283.895" stroke-width="9.75"></path><path d="M180.5 298.52 L180.5 334.605" stroke-width="9.75"></path><path d="M193.5 47.915 L193.5 512.085" stroke-width="9.75"></path><path d="M206.5 10.985 L206.5 549.015" stroke-width="9.75"></path><path d="M219.5 190.445 L219.5 248.945" stroke-width="9.75"></path><path d="M219.5 263.57 L219.5 322.07" stroke-width="9.75"></path><path d="M219.5 336.695 L219.5 369.555" stroke-width="9.75"></path><path d="M232.5 12.445 L232.5 363.445" stroke-width="9.75"></path><path d="M232.5 378.07 L232.5 547.555" stroke-width="9.75"></path><path d="M245.5 170.935 L245.5 268.435" stroke-width="9.75"></path><path d="M245.5 283.06 L245.5 312.31" stroke-width="9.75"></path><path d="M245.5 326.935 L245.5 389.065" stroke-width="9.75"></path><path d="M258.5 110.685 L258.5 449.315" stroke-width="9.75"></path><path d="M271.5 163.685 L271.5 241.685" stroke-width="9.75"></path><path d="M271.5 256.31 L271.5 396.315" stroke-width="9.75"></path><path d="M284.5 110.415 L284.5 449.585" stroke-width="9.75"></path><path d="M297.5 69.055 L297.5 490.945" stroke-width="9.75"></path><path d="M310.5 44.185 L310.5 248.935" stroke-width="9.75"></path><path d="M310.5 263.56 L310.5 468.31" stroke-width="9.75"></path><path d="M310.5 482.935 L310.5 515.815" stroke-width="9.75"></path><path d="M323.5 218.395 L323.5 267.145" stroke-width="9.75"></path><path d="M323.5 281.77 L323.5 341.605" stroke-width="9.75"></path><path d="M336.5 97.685 L336.5 195.185" stroke-width="9.75"></path><path d="M336.5 209.81 L336.5 462.315" stroke-width="9.75"></path><path d="M349.5 230.255 L349.5 288.755" stroke-width="9.75"></path><path d="M349.5 303.38 L349.5 329.745" stroke-width="9.75"></path><path d="M362.5 168.875 L362.5 391.125" stroke-width="9.75"></path><path d="M375.5 77.075 L375.5 203.825" stroke-width="9.75"></path><path d="M375.5 218.45 L375.5 237.95" stroke-width="9.75"></path><path d="M375.5 252.575 L375.5 482.925" stroke-width="9.75"></path><path d="M388.5 212.055 L388.5 260.805" stroke-width="9.75"></path><path d="M388.5 275.43 L388.5 347.945" stroke-width="9.75"></path><path d="M401.5 26.305 L401.5 221.305" stroke-width="9.75"></path><path d="M401.5 235.93 L401.5 401.68" stroke-width="9.75"></path><path d="M401.5 416.305 L401.5 533.695" stroke-width="9.75"></path><path d="M414.5 40.675 L414.5 450.175" stroke-width="9.75"></path><path d="M414.5 464.8 L414.5 519.325" stroke-width="9.75"></path><path d="M427.5 250.885 L427.5 260.635" stroke-width="9.75"></path><path d="M427.5 275.26 L427.5 309.115" stroke-width="9.75"></path><path d="M440.5 130.315 L440.5 354.565" stroke-width="9.75"></path><path d="M440.5 369.19 L440.5 388.69" stroke-width="9.75"></path><path d="M440.5 403.315 L440.5 429.685" stroke-width="9.75"></path><path d="M453.5 16.744999999999997 L453.5 543.255" stroke-width="9.75"></path><path d="M466.5 250.525 L466.5 260.275" stroke-width="9.75"></path><path d="M466.5 274.9 L466.5 284.65" stroke-width="9.75"></path><path d="M466.5 299.275 L466.5 309.485" stroke-width="9.75"></path><path d="M479.5 45.525 L479.5 250.275" stroke-width="9.75"></path><path d="M479.5 264.9 L479.5 294.15" stroke-width="9.75"></path><path d="M479.5 308.775 L479.5 514.475" stroke-width="9.75"></path><path d="M492.5 22.365 L492.5 324.615" stroke-width="9.75"></path><path d="M492.5 339.24 L492.5 397.74" stroke-width="9.75"></path><path d="M492.5 412.365 L492.5 537.635" stroke-width="9.75"></path><path d="M505.5 112.915 L505.5 356.665" stroke-width="9.75"></path><path d="M505.5 371.29 L505.5 447.085" stroke-width="9.75"></path><path d="M518.5 30.155 L518.5 283.655" stroke-width="9.75"></path><path d="M518.5 298.28 L518.5 454.28" stroke-width="9.75"></path><path d="M518.5 468.905 L518.5 529.845" stroke-width="9.75"></path><path d="M531.5 79.935 L531.5 109.185" stroke-width="9.75"></path><path d="M531.5 123.81 L531.5 480.065" stroke-width="9.75"></path><path d="M544.5 249.285 L544.5 278.53499999999997" stroke-width="9.75"></path><path d="M544.5 293.15999999999997 L544.5 310.705" stroke-width="9.75"></path><path d="M557.5 96.935 L557.5 252.935" stroke-width="9.75"></path><path d="M557.5 267.56 L557.5 374.81" stroke-width="9.75"></path><path d="M557.5 389.435 L557.5 463.065" stroke-width="9.75"></path><path d="M570.5 211.505 L570.5 289.505" stroke-width="9.75"></path><path d="M570.5 304.13 L570.5 313.88" stroke-width="9.75"></path><path d="M570.5 328.505 L570.5 348.495" stroke-width="9.75"></path><path d="M583.5 154.995 L583.5 301.245" stroke-width="9.75"></path><path d="M583.5 315.87 L583.5 354.87" stroke-width="9.75"></path><path d="M583.5 369.495 L583.5 405.005" stroke-width="9.75"></path><path d="M596.5 169.775 L596.5 247.775" stroke-width="9.75"></path><path d="M596.5 262.4 L596.5 320.9" stroke-width="9.75"></path><path d="M596.5 335.525 L596.5 390.225" stroke-width="9.75"></path><path d="M609.5 87.525 L609.5 107.025" stroke-width="9.75"></path><path d="M609.5 121.65 L609.5 267.9" stroke-width="9.75"></path><path d="M609.5 282.525 L609.5 472.485" stroke-width="9.75"></path><path d="M622.5 108.285 L622.5 176.535" stroke-width="9.75"></path><path d="M622.5 191.16 L622.5 451.715" stroke-width="9.75"></path><path d="M635.5 87.185 L635.5 204.185" stroke-width="9.75"></path><path d="M635.5 218.81 L635.5 472.815" stroke-width="9.75"></path><path d="M648.5 212.375 L648.5 261.125" stroke-width="9.75"></path><path d="M648.5 275.75 L648.5 347.625" stroke-width="9.75"></path><path d="M661.5 23.545 L661.5 247.79500000000002" stroke-width="9.75"></path><path d="M661.5 262.42 L661.5 379.42" stroke-width="9.75"></path><path d="M661.5 394.045 L661.5 536.465" stroke-width="9.75"></path><path d="M674.5 24.525 L674.5 112.275" stroke-width="9.75"></path><path d="M674.5 126.9 L674.5 497.4" stroke-width="9.75"></path><path d="M674.5 512.025 L674.5 535.475" stroke-width="9.75"></path><path d="M687.5 111.755 L687.5 316.505" stroke-width="9.75"></path><path d="M687.5 331.13 L687.5 389.63" stroke-width="9.75"></path><path d="M687.5 404.255 L687.5 448.255" stroke-width="9.75"></path><path d="M700.5 134.785 L700.5 425.215" stroke-width="9.75"></path><path d="M713.5 50.275 L713.5 147.775" stroke-width="9.75"></path><path d="M713.5 162.4 L713.5 509.725" stroke-width="9.75"></path><path d="M726.5 77.565 L726.5 204.315" stroke-width="9.75"></path><path d="M726.5 218.94 L726.5 482.435" stroke-width="9.75"></path><path d="M739.5 166.575 L739.5 393.425" stroke-width="9.75"></path><path d="M752.5 253.345 L752.5 306.655" stroke-width="9.75"></path><path d="M765.5 117.355 L765.5 442.645" stroke-width="9.75"></path><path d="M778.5 212.135 L778.5 260.885" stroke-width="9.75"></path><path d="M778.5 275.51 L778.5 285.26" stroke-width="9.75"></path><path d="M778.5 299.885 L778.5 347.865" stroke-width="9.75"></path><path d="M791.5 38.485 L791.5 369.985" stroke-width="9.75"></path><path d="M791.5 384.61 L791.5 521.515" stroke-width="9.75"></path><path d="M804.5 190.375 L804.5 297.625" stroke-width="9.75"></path><path d="M804.5 312.25 L804.5 369.625" stroke-width="9.75"></path><path d="M817.5 97.195 L817.5 106.945" stroke-width="9.75"></path><path d="M817.5 121.57 L817.5 462.805" stroke-width="9.75"></path><path d="M830.5 164.725 L830.5 281.725" stroke-width="9.75"></path><path d="M830.5 296.35 L830.5 335.35" stroke-width="9.75"></path><path d="M830.5 349.975 L830.5 395.275" stroke-width="9.75"></path><path d="M843.5 239.025 L843.5 268.275" stroke-width="9.75"></path><path d="M843.5 282.9 L843.5 320.975" stroke-width="9.75"></path><path d="M856.5 245.775 L856.5 265.275" stroke-width="9.75"></path><path d="M856.5 279.9 L856.5 289.65" stroke-width="9.75"></path><path d="M856.5 304.275 L856.5 314.225" stroke-width="9.75"></path><path d="M869.5 217.865 L869.5 227.615" stroke-width="9.75"></path><path d="M869.5 242.24 L869.5 342.135" stroke-width="9.75"></path><path d="M882.5 50.385 L882.5 342.885" stroke-width="9.75"></path><path d="M882.5 357.51 L882.5 509.615" stroke-width="9.75"></path><path d="M895.5 229.505 L895.5 249.005" stroke-width="9.75"></path><path d="M895.5 263.63 L895.5 273.38" stroke-width="9.75"></path><path d="M895.5 288.005 L895.5 330.495" stroke-width="9.75"></path><path d="M908.5 213.795 L908.5 243.045" stroke-width="9.75"></path><path d="M908.5 257.66999999999996 L908.5 316.16999999999996" stroke-width="9.75"></path><path d="M908.5 330.79499999999996 L908.5 346.205" stroke-width="9.75"></path><path d="M921.5 185.635 L921.5 263.635" stroke-width="9.75"></path><path d="M921.5 278.26 L921.5 374.365" stroke-width="9.75"></path><path d="M934.5 170.735 L934.5 277.985" stroke-width="9.75"></path><path d="M934.5 292.61 L934.5 389.265" stroke-width="9.75"></path><path d="M947.5 197.025 L947.5 284.775" stroke-width="9.75"></path><path d="M947.5 299.4 L947.5 328.65" stroke-width="9.75"></path><path d="M947.5 343.275 L947.5 362.975" stroke-width="9.75"></path><path d="M960.5 20.715 L960.5 539.285" stroke-width="9.75"></path><path d="M973.5 220.185 L973.5 249.435" stroke-width="9.75"></path><path d="M973.5 264.06 L973.5 339.815" stroke-width="9.75"></path><path d="M986.5 28.265 L986.5 379.265" stroke-width="9.75"></path><path d="M986.5 393.89 L986.5 423.14" stroke-width="9.75"></path><path d="M986.5 437.765 L986.5 531.735" stroke-width="9.75"></path><path d="M999.5 156.845 L999.5 303.095" stroke-width="9.75"></path><path d="M999.5 317.72 L999.5 376.22" stroke-width="9.75"></path><path d="M999.5 390.845 L999.5 403.145" stroke-width="9.75"></path><path d="M1012.5 91.775 L1012.5 316.025" stroke-width="9.75"></path><path d="M1012.5 330.65 L1012.5 369.65" stroke-width="9.75"></path><path d="M1012.5 384.275 L1012.5 468.225" stroke-width="9.75"></path><path d="M1025.5 160.465 L1025.5 335.96500000000003" stroke-width="9.75"></path><path d="M1025.5 350.59000000000003 L1025.5 399.525" stroke-width="9.75"></path><path d="M1038.5 129.875 L1038.5 430.125" stroke-width="9.75"></path><path d="M1051.5 109.135 L1051.5 118.885" stroke-width="9.75"></path><path d="M1051.5 133.51 L1051.5 396.76" stroke-width="9.75"></path><path d="M1051.5 411.385 L1051.5 450.865" stroke-width="9.75"></path><path d="M1064.5 207.595 L1064.5 285.595" stroke-width="9.75"></path><path d="M1064.5 300.22 L1064.5 319.72" stroke-width="9.75"></path><path d="M1064.5 334.345 L1064.5 352.405" stroke-width="9.75"></path><path d="M1077.5 185.545 L1077.5 283.04499999999996" stroke-width="9.75"></path><path d="M1077.5 297.66999999999996 L1077.5 374.455" stroke-width="9.75"></path><path d="M1090.5 150.195 L1090.5 276.945" stroke-width="9.75"></path><path d="M1090.5 291.57 L1090.5 340.32" stroke-width="9.75"></path><path d="M1090.5 354.945 L1090.5 409.805" stroke-width="9.75"></path><path d="M1103.5 10.795 L1103.5 549.205" stroke-width="9.75"></path><path d="M1116.5 225.975 L1116.5 274.725" stroke-width="9.75"></path><path d="M1116.5 289.35 L1116.5 334.025" stroke-width="9.75"></path><path d="M1129.5 168.965 L1129.5 391.025" stroke-width="9.75"></path><path d="M1142.5 176.635 L1142.5 205.885" stroke-width="9.75"></path><path d="M1142.5 220.51 L1142.5 383.365" stroke-width="9.75"></path><path d="M1155.5 49.785 L1155.5 244.785" stroke-width="9.75"></path><path d="M1155.5 259.40999999999997 L1155.5 510.21500000000003" stroke-width="9.75"></path><path d="M1168.5 94.875 L1168.5 192.375" stroke-width="9.75"></path><path d="M1168.5 207 L1168.5 382.5" stroke-width="9.75"></path><path d="M1168.5 397.125 L1168.5 465.125" stroke-width="9.75"></path><path d="M1181.5 139.055 L1181.5 178.055" stroke-width="9.75"></path><path d="M1181.5 192.68 L1181.5 420.945" stroke-width="9.75"></path><path d="M1194.5 65.815 L1194.5 251.065" stroke-width="9.75"></path><path d="M1194.5 265.69 L1194.5 494.185" stroke-width="9.75"></path><path d="M1207.5 206.875 L1207.5 255.625" stroke-width="9.75"></path><path d="M1207.5 270.25 L1207.5 289.75" stroke-width="9.75"></path><path d="M1207.5 304.375 L1207.5 353.125" stroke-width="9.75"></path><path d="M1220.5 52.215 L1220.5 422.71500000000003" stroke-width="9.75"></path><path d="M1220.5 437.34000000000003 L1220.5 507.78499999999997" stroke-width="9.75"></path><path d="M1233.5 34.114999999999995 L1233.5 277.865" stroke-width="9.75"></path><path d="M1233.5 292.49 L1233.5 350.99" stroke-width="9.75"></path><path d="M1233.5 365.615 L1233.5 525.885" stroke-width="9.75"></path><path d="M1246.5 97.385 L1246.5 321.635" stroke-width="9.75"></path><path d="M1246.5 336.26 L1246.5 375.26" stroke-width="9.75"></path><path d="M1246.5 389.885 L1246.5 462.615" stroke-width="9.75"></path><path d="M1259.5 207.215 L1259.5 246.215" stroke-width="9.75"></path><path d="M1259.5 260.84000000000003 L1259.5 352.785" stroke-width="9.75"></path><path d="M1272.5 203.845 L1272.5 213.595" stroke-width="9.75"></path><path d="M1272.5 228.22 L1272.5 356.155" stroke-width="9.75"></path><path d="M1285.5 72.755 L1285.5 487.255" stroke-width="9.75"></path><path d="M1298.5 144.485 L1298.5 241.985" stroke-width="9.75"></path><path d="M1298.5 256.61 L1298.5 295.61" stroke-width="9.75"></path><path d="M1298.5 310.235 L1298.5 415.515" stroke-width="9.75"></path><path d="M1311.5 220.595 L1311.5 288.845" stroke-width="9.75"></path><path d="M1311.5 303.47 L1311.5 339.395" stroke-width="9.75"></path><path d="M1324.5 240.595 L1324.5 319.395" stroke-width="9.75"></path><path d="M1337.5 161.005 L1337.5 239.005" stroke-width="9.75"></path><path d="M1337.5 253.63 L1337.5 398.995" stroke-width="9.75"></path><path d="M1350.5 58.305 L1350.5 350.805" stroke-width="9.75"></path><path d="M1350.5 365.43 L1350.5 501.695" stroke-width="9.75"></path><path d="M1363.5 184.055 L1363.5 375.945" stroke-width="9.75"></path><path d="M1376.5 27.195 L1376.5 124.695" stroke-width="9.75"></path><path d="M1376.5 139.32 L1376.5 490.32" stroke-width="9.75"></path><path d="M1376.5 504.945 L1376.5 532.795" stroke-width="9.75"></path><path d="M1389.5 43.795 L1389.5 346.045" stroke-width="9.75"></path><path d="M1389.5 360.67 L1389.5 409.42" stroke-width="9.75"></path><path d="M1389.5 424.045 L1389.5 516.205" stroke-width="9.75"></path><path d="M1402.5 5.995 L1402.5 454.495" stroke-width="9.75"></path><path d="M1402.5 469.12 L1402.5 554.005" stroke-width="9.75"></path><path d="M1415.5 229.165 L1415.5 258.41499999999996" stroke-width="9.75"></path><path d="M1415.5 273.03999999999996 L1415.5 302.28999999999996" stroke-width="9.75"></path><path d="M1415.5 316.91499999999996 L1415.5 330.835" stroke-width="9.75"></path><path d="M1428.5 160.245 L1428.5 247.995" stroke-width="9.75"></path><path d="M1428.5 262.62 L1428.5 350.37" stroke-width="9.75"></path><path d="M1428.5 364.995 L1428.5 399.755" stroke-width="9.75"></path></g></g><defs><mask id="SvgjsMask1648"><rect width="1440" height="560" fill="#ffffff"></rect></mask><radialGradient cx="1440" cy="280" r="1466.97" gradientUnits="userSpaceOnUse" id="SvgjsRadialGradient1649"><stop stop-color="rgba(1, 123, 217, 1)" offset="0.01"></stop><stop stop-color="rgba(1, 206, 217, 1)" offset="0.32"></stop><stop stop-color="rgba(1, 217, 153, 1)" offset="0.68"></stop><stop stop-color="rgba(1, 217, 47, 1)" offset="1"></stop></radialGradient></defs></svg>